<svg width="14" height="11" viewBox="0 0 14 11" fill="none" xmlns="http://www.w3.org/2000/svg">
<path opacity="0.4" fill-rule="evenodd" clip-rule="evenodd" d="M1.46155 8.90837C1.33914 8.90837 1.22174 8.95705 1.13518 9.04371C1.04863 9.13036 1 9.24789 1 9.37043C1 9.49298 1.04863 9.6105 1.13518 9.69716C1.22174 9.78381 1.33914 9.83249 1.46155 9.83249C1.58396 9.83249 1.70135 9.88117 1.78791 9.96782C1.87447 10.0545 1.9231 10.172 1.9231 10.2945C1.9231 10.4171 1.97172 10.5346 2.05828 10.6213C2.14484 10.7079 2.26223 10.7566 2.38464 10.7566C2.50705 10.7566 2.62445 10.7079 2.71101 10.6213C2.79756 10.5346 2.84619 10.4171 2.84619 10.2945C2.84619 9.92691 2.70031 9.57433 2.44064 9.31437C2.18097 9.05442 1.82878 8.90837 1.46155 8.90837ZM1.46155 7.06014C1.33914 7.06014 1.22174 7.10882 1.13518 7.19548C1.04863 7.28213 1 7.39966 1 7.5222C1 7.64475 1.04863 7.76227 1.13518 7.84893C1.22174 7.93558 1.33914 7.98426 1.46155 7.98426C2.0736 7.98426 2.66058 8.22766 3.09337 8.66093C3.52615 9.09419 3.76929 9.68182 3.76929 10.2945C3.76929 10.4171 3.81791 10.5346 3.90447 10.6213C3.99103 10.7079 4.10842 10.7566 4.23083 10.7566C4.35324 10.7566 4.47064 10.7079 4.5572 10.6213C4.64376 10.5346 4.69238 10.4171 4.69238 10.2945C4.69147 9.43701 4.35078 8.61486 3.74508 8.00849C3.13938 7.40212 2.31814 7.06106 1.46155 7.06014ZM1.46155 5.21191C1.33914 5.21191 1.22174 5.2606 1.13518 5.34725C1.04863 5.4339 1 5.55143 1 5.67397C1 5.79652 1.04863 5.91404 1.13518 6.0007C1.22174 6.08735 1.33914 6.13603 1.46155 6.13603C2.56286 6.13725 3.61872 6.57577 4.39747 7.35538C5.17622 8.13499 5.61426 9.19201 5.61548 10.2945C5.61548 10.4171 5.66411 10.5346 5.75066 10.6213C5.83722 10.7079 5.95462 10.7566 6.07703 10.7566C6.19944 10.7566 6.31683 10.7079 6.40339 10.6213C6.48995 10.5346 6.53857 10.4171 6.53857 10.2945C6.53705 8.94702 6.00166 7.65512 5.04986 6.70227C4.09806 5.74942 2.80759 5.21344 1.46155 5.21191Z" fill="white"/>
<path fill-rule="evenodd" clip-rule="evenodd" d="M12.7296 10.4859C12.9027 10.3126 13 10.0775 13 9.83242V1.51542C13 1.27033 12.9027 1.03528 12.7296 0.861974C12.5565 0.68867 12.3217 0.591309 12.0769 0.591309H1.92308C1.67826 0.591309 1.44347 0.68867 1.27036 0.861974C1.09725 1.03528 1 1.27033 1 1.51542V3.8257C1 3.94824 1.04863 4.06577 1.13518 4.15242C1.22174 4.23907 1.33913 4.28775 1.46154 4.28775C1.58395 4.28775 1.70134 4.23907 1.7879 4.15242C1.87445 4.06577 1.92308 3.94824 1.92308 3.8257V1.51542H12.0769V9.83242H7.92308C7.80067 9.83242 7.68328 9.8811 7.59672 9.96775C7.51016 10.0544 7.46154 10.1719 7.46154 10.2945C7.46154 10.417 7.51016 10.5345 7.59672 10.6212C7.68328 10.7078 7.80067 10.7565 7.92308 10.7565H12.0769C12.3217 10.7565 12.5565 10.6592 12.7296 10.4859Z" fill="white" stroke="white" stroke-width="0.5"/>
</svg>
