<svg width="130" height="38" viewBox="0 0 130 38" fill="none" xmlns="http://www.w3.org/2000/svg">
<path d="M113.88 29.3929C113.867 28.69 114.018 28.0749 114.332 27.5476C114.645 27.0079 115.047 26.5371 115.537 26.1354C116.039 25.7337 116.604 25.3948 117.231 25.1186C117.859 24.8299 118.48 24.5851 119.096 24.3843C119.886 24.1206 120.721 23.8947 121.6 23.7064C122.491 23.5181 123.357 23.3549 124.198 23.2168L124.029 16.9842C124.004 16.2938 123.828 15.7854 123.502 15.459C123.188 15.1201 122.686 14.9506 121.995 14.9506C121.669 14.9506 121.374 14.9757 121.11 15.0259C120.847 15.0761 120.614 15.1766 120.414 15.3272C120.225 15.4778 120.075 15.685 119.962 15.9486C119.849 16.2122 119.786 16.5511 119.773 16.9654L119.642 21.2397C119.642 21.4782 119.604 21.6665 119.529 21.8046C119.466 21.9427 119.334 22.0494 119.133 22.1247C118.932 22.2 118.644 22.2502 118.267 22.2753C117.903 22.3004 117.413 22.313 116.798 22.313C116.233 22.313 115.775 22.3004 115.424 22.2753C115.072 22.2502 114.802 22.2 114.614 22.1247C114.426 22.0494 114.3 21.9427 114.238 21.8046C114.175 21.6665 114.137 21.4782 114.125 21.2397L113.974 17.229C113.949 16.5637 114.062 15.9737 114.313 15.459C114.564 14.9318 114.903 14.4799 115.33 14.1033C115.769 13.7141 116.265 13.3877 116.817 13.1241C117.382 12.8605 117.966 12.6471 118.568 12.4839C119.183 12.3082 119.792 12.1889 120.395 12.1262C120.997 12.0508 121.55 12.0132 122.052 12.0132C123.131 12.0132 124.154 12.1387 125.121 12.3898C126.1 12.6283 126.954 12.9798 127.682 13.4442C128.41 13.9087 128.981 14.4799 129.395 15.1577C129.822 15.823 130.023 16.5888 129.998 17.455L129.414 33.7991C129.402 34.0376 129.364 34.2259 129.301 34.364C129.251 34.5021 129.138 34.6088 128.962 34.6841C128.787 34.7594 128.535 34.8096 128.209 34.8347C127.895 34.8598 127.475 34.8724 126.948 34.8724C126.458 34.8724 126.063 34.8598 125.761 34.8347C125.473 34.8096 125.247 34.7594 125.083 34.6841C124.933 34.6088 124.826 34.5021 124.763 34.364C124.713 34.2259 124.688 34.0376 124.688 33.7991L124.669 33.14C124.33 33.3911 123.96 33.6359 123.558 33.8744C123.156 34.1004 122.73 34.3075 122.278 34.4958C121.826 34.6715 121.343 34.8159 120.828 34.9289C120.326 35.0418 119.799 35.0983 119.246 35.0983C118.367 35.0983 117.595 34.9791 116.93 34.7406C116.265 34.4895 115.706 34.1568 115.254 33.7426C114.815 33.3158 114.482 32.8199 114.256 32.2551C114.03 31.6776 113.911 31.0625 113.899 30.4097L113.88 29.3929ZM119.039 29.8449C119.039 30.2214 119.096 30.5478 119.209 30.824C119.322 31.0876 119.472 31.3073 119.66 31.483C119.849 31.6462 120.068 31.7718 120.319 31.8596C120.583 31.9349 120.866 31.9726 121.167 31.9726C121.895 31.9726 122.523 31.8534 123.05 31.6148C123.577 31.3763 124.029 31.1002 124.406 30.7863L124.274 25.9471C123.596 26.0601 123 26.1919 122.485 26.3425C121.97 26.4806 121.512 26.6375 121.11 26.8133C120.483 27.102 119.981 27.4221 119.604 27.7736C119.227 28.1125 119.039 28.5582 119.039 29.1105V29.8449Z" fill="white"/>
<path d="M95.3588 29.3929C95.3462 28.69 95.4968 28.0749 95.8107 27.5476C96.1245 27.0079 96.5262 26.5371 97.0158 26.1354C97.5179 25.7337 98.0828 25.3948 98.7104 25.1186C99.3381 24.8299 99.9595 24.5851 100.575 24.3843C101.365 24.1206 102.2 23.8947 103.079 23.7064C103.97 23.5181 104.836 23.3549 105.677 23.2168L105.508 16.9842C105.483 16.2938 105.307 15.7854 104.981 15.459C104.667 15.1201 104.165 14.9506 103.474 14.9506C103.148 14.9506 102.853 14.9757 102.589 15.0259C102.326 15.0761 102.093 15.1766 101.893 15.3272C101.704 15.4778 101.554 15.685 101.441 15.9486C101.328 16.2122 101.265 16.5511 101.252 16.9654L101.121 21.2397C101.121 21.4782 101.083 21.6665 101.008 21.8046C100.945 21.9427 100.813 22.0494 100.612 22.1247C100.411 22.2 100.123 22.2502 99.7461 22.2753C99.382 22.3004 98.8925 22.313 98.2774 22.313C97.7125 22.313 97.2543 22.3004 96.9028 22.2753C96.5513 22.2502 96.2814 22.2 96.0931 22.1247C95.9048 22.0494 95.7793 21.9427 95.7165 21.8046C95.6538 21.6665 95.6161 21.4782 95.6035 21.2397L95.4529 17.229C95.4278 16.5637 95.5408 15.9737 95.7918 15.459C96.0429 14.9318 96.3818 14.4799 96.8086 14.1033C97.248 13.7141 97.7438 13.3877 98.2962 13.1241C98.8611 12.8605 99.4448 12.6471 100.047 12.4839C100.662 12.3082 101.271 12.1889 101.874 12.1262C102.476 12.0508 103.029 12.0132 103.531 12.0132C104.61 12.0132 105.633 12.1387 106.6 12.3898C107.579 12.6283 108.433 12.9798 109.161 13.4442C109.889 13.9087 110.46 14.4799 110.874 15.1577C111.301 15.823 111.502 16.5888 111.477 17.455L110.893 33.7991C110.881 34.0376 110.843 34.2259 110.78 34.364C110.73 34.5021 110.617 34.6088 110.441 34.6841C110.266 34.7594 110.014 34.8096 109.688 34.8347C109.374 34.8598 108.954 34.8724 108.427 34.8724C107.937 34.8724 107.542 34.8598 107.24 34.8347C106.952 34.8096 106.726 34.7594 106.562 34.6841C106.412 34.6088 106.305 34.5021 106.242 34.364C106.192 34.2259 106.167 34.0376 106.167 33.7991L106.148 33.14C105.809 33.3911 105.439 33.6359 105.037 33.8744C104.635 34.1004 104.209 34.3075 103.757 34.4958C103.305 34.6715 102.822 34.8159 102.307 34.9289C101.805 35.0418 101.278 35.0983 100.725 35.0983C99.8465 35.0983 99.0745 34.9791 98.4092 34.7406C97.7438 34.4895 97.1852 34.1568 96.7333 33.7426C96.294 33.3158 95.9613 32.8199 95.7353 32.2551C95.5094 31.6776 95.3901 31.0625 95.3776 30.4097L95.3588 29.3929ZM100.518 29.8449C100.518 30.2214 100.575 30.5478 100.688 30.824C100.801 31.0876 100.951 31.3073 101.139 31.483C101.328 31.6462 101.547 31.7718 101.798 31.8596C102.062 31.9349 102.345 31.9726 102.646 31.9726C103.374 31.9726 104.002 31.8534 104.529 31.6148C105.056 31.3763 105.508 31.1002 105.885 30.7863L105.753 25.9471C105.075 26.0601 104.479 26.1919 103.964 26.3425C103.449 26.4806 102.991 26.6375 102.589 26.8133C101.962 27.102 101.46 27.4221 101.083 27.7736C100.706 28.1125 100.518 28.5582 100.518 29.1105V29.8449Z" fill="white"/>
<path d="M86.667 3.78472C86.667 3.52111 86.6921 3.30143 86.7423 3.12568C86.8051 2.93739 86.9432 2.79303 87.1566 2.6926C87.37 2.59218 87.6775 2.52313 88.0792 2.48547C88.4935 2.43526 89.0395 2.41016 89.7174 2.41016C90.3953 2.41016 90.935 2.43526 91.3367 2.48547C91.751 2.52313 92.0648 2.59218 92.2782 2.6926C92.4916 2.79303 92.6234 2.93739 92.6736 3.12568C92.7364 3.30143 92.7678 3.52111 92.7678 3.78472L92.1841 33.7992C92.1841 34.0377 92.1527 34.226 92.0899 34.3641C92.0272 34.5021 91.9079 34.6088 91.7322 34.6842C91.5564 34.7595 91.3054 34.8097 90.979 34.8348C90.6652 34.8599 90.2446 34.8725 89.7174 34.8725C89.1902 34.8725 88.7634 34.8599 88.437 34.8348C88.1232 34.8097 87.8784 34.7595 87.7026 34.6842C87.5394 34.6088 87.4265 34.5021 87.3637 34.3641C87.3009 34.226 87.2695 34.0377 87.2695 33.7992L86.667 3.78472Z" fill="white"/>
<path d="M67.845 17.7374C67.8074 16.7331 68.0082 15.8733 68.4476 15.1577C68.8995 14.4297 69.502 13.8334 70.2552 13.3689C71.021 12.9045 71.8997 12.5655 72.8914 12.3521C73.8831 12.1262 74.8999 12.0132 75.9418 12.0132C76.9837 12.0132 78.0005 12.1262 78.9922 12.3521C79.9839 12.5655 80.8563 12.9045 81.6095 13.3689C82.3752 13.8334 82.9778 14.4297 83.4172 15.1577C83.8691 15.8733 84.0762 16.7331 84.0385 17.7374L83.6054 29.6566C83.5678 30.6859 83.3293 31.5521 82.8899 32.2551C82.4506 32.9455 81.8794 33.5041 81.1764 33.9309C80.4734 34.3451 79.6701 34.6464 78.7662 34.8347C77.8624 35.0105 76.9272 35.0983 75.9606 35.0983C74.9815 35.0983 74.04 35.0105 73.1362 34.8347C72.2323 34.6464 71.4227 34.3451 70.7071 33.9309C70.0042 33.5041 69.433 32.9455 68.9936 32.2551C68.5543 31.5646 68.3158 30.7047 68.2781 29.6754L67.845 17.7374ZM73.4374 29.826C73.4249 30.303 73.4625 30.7047 73.5504 31.0311C73.6508 31.3575 73.8015 31.6211 74.0023 31.822C74.2157 32.0228 74.4793 32.1672 74.7932 32.2551C75.1196 32.3429 75.5024 32.3869 75.9418 32.3869C76.8205 32.3869 77.4607 32.1986 77.8624 31.822C78.2767 31.4454 78.4712 30.7738 78.4461 29.8072L78.0695 17.4173C78.057 16.8901 77.9942 16.4633 77.8812 16.1369C77.7808 15.8105 77.6365 15.5594 77.4482 15.3837C77.2599 15.2079 77.0402 15.095 76.7891 15.0448C76.5381 14.982 76.2556 14.9506 75.9418 14.9506C75.628 14.9506 75.3455 14.982 75.0944 15.0448C74.8434 15.095 74.6237 15.2079 74.4354 15.3837C74.2471 15.5594 74.0965 15.8105 73.9835 16.1369C73.8831 16.4633 73.8266 16.8901 73.814 17.4173L73.4374 29.826Z" fill="white"/>
<path d="M46.8381 4.61315C46.8256 4.28677 46.857 4.02316 46.9323 3.82231C47.0076 3.62146 47.1645 3.46455 47.403 3.35157C47.6541 3.23859 48.0056 3.16327 48.4575 3.12561C48.9094 3.0754 49.5119 3.05029 50.2651 3.05029C51.0058 3.05029 51.602 3.0754 52.054 3.12561C52.5059 3.16327 52.8511 3.23859 53.0896 3.35157C53.3406 3.46455 53.5038 3.62146 53.5792 3.82231C53.667 4.02316 53.7047 4.28677 53.6921 4.61315L53.2967 18.3211H58.8326L58.456 4.61315C58.4435 4.28677 58.4749 4.02316 58.5502 3.82231C58.6255 3.62146 58.7824 3.46455 59.0209 3.35157C59.272 3.23859 59.6235 3.16327 60.0754 3.12561C60.5273 3.0754 61.1298 3.05029 61.883 3.05029C62.6237 3.05029 63.2199 3.0754 63.6718 3.12561C64.1238 3.16327 64.469 3.23859 64.7075 3.35157C64.9585 3.46455 65.1217 3.62146 65.197 3.82231C65.2849 4.02316 65.3226 4.28677 65.31 4.61315L64.4815 33.592C64.469 33.8807 64.4313 34.1129 64.3685 34.2887C64.3183 34.4519 64.2053 34.5774 64.0296 34.6653C63.8539 34.7531 63.5965 34.8096 63.2576 34.8347C62.9187 34.8598 62.4605 34.8724 61.883 34.8724C61.3056 34.8724 60.8411 34.8598 60.4896 34.8347C60.1507 34.8096 59.8934 34.7531 59.7176 34.6653C59.5419 34.5774 59.4226 34.4519 59.3599 34.2887C59.3096 34.1129 59.2783 33.8807 59.2657 33.592L58.9456 21.8988H53.2026L52.8636 33.592C52.8636 33.8807 52.8322 34.1129 52.7695 34.2887C52.7193 34.4519 52.6 34.5774 52.4117 34.6653C52.236 34.7531 51.9786 34.8096 51.6397 34.8347C51.3008 34.8598 50.8426 34.8724 50.2651 34.8724C49.6877 34.8724 49.2232 34.8598 48.8717 34.8347C48.5328 34.8096 48.2755 34.7531 48.0997 34.6653C47.924 34.5774 47.8047 34.4519 47.742 34.2887C47.6917 34.1129 47.6604 33.8807 47.6478 33.592L46.8381 4.61315Z" fill="white"/>
<path fill-rule="evenodd" clip-rule="evenodd" d="M30.8407 12.1283C36.0253 15.1234 36.0253 22.6072 30.8407 25.6022L11.6721 36.6756C6.48526 39.672 0 35.9288 0 29.9387V7.79189C0 1.80175 6.48526 -1.94141 11.6721 1.05495L30.8407 12.1283ZM17.0321 21.0162C13.1681 21.0244 10.8417 18.1079 10.8347 14.2438C10.8276 10.3798 6.44467 6.61427 6.22881 10.4723C6.22549 10.5316 6.2238 10.5916 6.2238 10.6522L6.2238 27.0579C6.2238 29.4152 8.77938 30.8883 10.8233 29.7091L25.0418 21.5063C26.0534 20.9227 23.0839 20.956 19.5797 20.9953C18.7453 21.0047 17.8806 21.0144 17.0321 21.0162Z" fill="url(#paint0_linear_1_688)"/>
<defs>
<linearGradient id="paint0_linear_1_688" x1="0" y1="0" x2="35.2447" y2="1.29281" gradientUnits="userSpaceOnUse">
<stop stop-color="#5A0DFF"/>
<stop offset="0.395" stop-color="#FF29B8"/>
<stop offset="1" stop-color="#FF581C"/>
</linearGradient>
</defs>
</svg>
