<svg width="25" height="20" viewBox="0 0 25 20" fill="none" xmlns="http://www.w3.org/2000/svg">
<g id="Group 370">
<path id="Subtract" fill-rule="evenodd" clip-rule="evenodd" d="M22.8481 19.2405C23.5122 19.2405 24.0506 18.7021 24.0506 18.038C24.0506 17.3738 23.5122 16.8354 22.8481 16.8354H1.20253C0.538392 16.8354 0 17.3738 0 18.038C0 18.7021 0.538392 19.2405 1.20253 19.2405H22.8481ZM22.8481 10.8228C23.5122 10.8228 24.0506 10.2844 24.0506 9.62025C24.0506 8.95611 23.5122 8.41772 22.8481 8.41772H13.2278C12.5637 8.41772 12.0253 8.95611 12.0253 9.62025C12.0253 10.2844 12.5637 10.8228 13.2278 10.8228H22.8481ZM22.8481 2.40506C23.5122 2.40506 24.0506 1.86667 24.0506 1.20253C24.0506 0.538392 23.5122 0 22.8481 0H13.2278C12.5637 0 12.0253 0.538392 12.0253 1.20253C12.0253 1.86667 12.5637 2.40506 13.2278 2.40506H22.8481Z" fill="white"/>
<path id="Subtract_2" fill-rule="evenodd" clip-rule="evenodd" d="M0 2.77086C0 1.82635 1.03893 1.25053 1.83987 1.75112L7.98866 5.59411C8.74225 6.0651 8.74225 7.16261 7.98866 7.6336L1.83987 11.4766C1.03893 11.9772 0 11.4014 0 10.4568V2.77086ZM2.40506 6.61385C2.40506 7.3423 3.20632 7.78639 3.82404 7.40032C4.40524 7.03707 4.40524 6.19063 3.82404 5.82739C3.20632 5.44132 2.40506 5.88541 2.40506 6.61385Z" fill="white" fill-opacity="0.4"/>
</g>
</svg>
