<svg width="23" height="22" viewBox="0 0 23 22" fill="none" xmlns="http://www.w3.org/2000/svg">
<rect width="23" height="22" fill="#1E1E1E"/>
<g clip-path="url(#clip0_0_1)">
<rect width="1920" height="2135" transform="translate(-397 -1391)" fill="#101010"/>
<rect x="-337" y="-355" width="1800" height="454" rx="50" fill="url(#paint0_linear_0_1)"/>
<rect x="-337" y="-355" width="1800" height="454" rx="50" fill="url(#paint1_linear_0_1)"/>
<g filter="url(#filter0_d_0_1)">
<rect x="4" width="15" height="14" rx="3" fill="white" fill-opacity="0.4"/>
<path fill-rule="evenodd" clip-rule="evenodd" d="M11.125 8.75H10.375V10H9.25V8.75H7V5H8.125V7.5H9.25V5H10.375V7.5H11.125V8.75ZM16 10H14.6875L13.375 8.125V10H12.25V5H13.375V6.875L14.6875 5H16L14.3125 7.5L16 10Z" fill="white"/>
</g>
</g>
<defs>
<filter id="filter0_d_0_1" x="0" y="0" width="23" height="22" filterUnits="userSpaceOnUse" color-interpolation-filters="sRGB">
<feFlood flood-opacity="0" result="BackgroundImageFix"/>
<feColorMatrix in="SourceAlpha" type="matrix" values="0 0 0 0 0 0 0 0 0 0 0 0 0 0 0 0 0 0 127 0" result="hardAlpha"/>
<feOffset dy="4"/>
<feGaussianBlur stdDeviation="2"/>
<feComposite in2="hardAlpha" operator="out"/>
<feColorMatrix type="matrix" values="0 0 0 0 0 0 0 0 0 0 0 0 0 0 0 0 0 0 0.25 0"/>
<feBlend mode="normal" in2="BackgroundImageFix" result="effect1_dropShadow_0_1"/>
<feBlend mode="normal" in="SourceGraphic" in2="effect1_dropShadow_0_1" result="shape"/>
</filter>
<linearGradient id="paint0_linear_0_1" x1="-194.5" y1="-355" x2="1410.02" y2="206.311" gradientUnits="userSpaceOnUse">
<stop stop-color="#181818"/>
<stop offset="1" stop-color="#151515"/>
</linearGradient>
<linearGradient id="paint1_linear_0_1" x1="-194.5" y1="-355" x2="1410.02" y2="206.311" gradientUnits="userSpaceOnUse">
<stop stop-color="#181818"/>
<stop offset="1" stop-color="#151515"/>
</linearGradient>
<clipPath id="clip0_0_1">
<rect width="1920" height="2135" fill="white" transform="translate(-397 -1391)"/>
</clipPath>
</defs>
</svg>
