<svg width="26" height="26" viewBox="0 0 26 26" fill="none" xmlns="http://www.w3.org/2000/svg">
<path fill-rule="evenodd" clip-rule="evenodd" d="M11.7427 2.98709C7.06809 2.98709 3.2786 6.77658 3.2786 11.4512C3.2786 16.1257 7.06809 19.9152 11.7427 19.9152C16.4173 19.9152 20.2067 16.1257 20.2067 11.4512C20.2067 6.77658 16.4173 2.98709 11.7427 2.98709ZM0.873535 11.4512C0.873535 5.44832 5.73981 0.582031 11.7427 0.582031C17.7455 0.582031 22.6118 5.44832 22.6118 11.4512C22.6118 17.454 17.7455 22.3203 11.7427 22.3203C5.73981 22.3203 0.873535 17.454 0.873535 11.4512Z" fill="white"/>
<path opacity="0.4" fill-rule="evenodd" clip-rule="evenodd" d="M18.341 16.8696L25.5195 24.0295L23.8212 25.7323L16.6426 18.5724L18.341 16.8696Z" fill="white"/>
</svg>
